<svg id="Layer_1" data-name="Layer 1" xmlns="http://www.w3.org/2000/svg" viewBox="0 0 4787 2703"><defs><style>.cls-1{fill:#d1d1d1;}.cls-2{fill:#fff;}</style></defs><title>co2</title><path class="cls-1" d="M3260.57,1485.82a560.61,560.61,0,0,0,19.52-145.37c0-314.85-255-569.46-569.46-569.46a566,566,0,0,0-227.2,47.35C2413.65,656.35,2252.49,543,2065.16,543c-251.71,0-455.65,203.95-455.65,455.65,0,17,3.32,32.82,5,49.43-182.35,84.32-309,267.91-309,482.23,0,293.66,238,531.67,531.66,531.67H3128.48c167.81,0,303.63-135.83,303.63-303.63,0-120.46-70.2-223-171.54-272.48Z"/><path class="cls-2" d="M1833.24,1723.48h134V1371.74q0-25.85,1.44-54.08l-79,65.57a55.39,55.39,0,0,1-15.32,9.09,49.77,49.77,0,0,1-14.83,2.39,47.7,47.7,0,0,1-22.49-5.26q-9.58-5.75-14.36-12l-46.9-62.22,217.27-182.33h122.51v590.54h114.85v107.2h-397.2Zm512.13,0h134V1371.74q0-25.85,1.43-54.08l-79,65.57a55.39,55.39,0,0,1-15.32,9.09,49.77,49.77,0,0,1-14.83,2.39,47.7,47.7,0,0,1-22.49-5.26q-9.57-5.75-14.36-12l-46.9-62.22,217.27-182.33h122.51v590.54h114.85v107.2h-397.2Zm487.93-100.65v207.85h-25.12V1622.83Zm46.52,207.85V1622.83h25.26v85.51a72.51,72.51,0,0,1,20.32-16.51,54,54,0,0,1,26.39-6.35,52.64,52.64,0,0,1,22.43,4.66,45,45,0,0,1,17.07,14q7.07,9.17,10.87,22.86,3.81,13.54,3.81,31.32a99.34,99.34,0,0,1-4.23,29.49,71.11,71.11,0,0,1-12.28,23.57,56.11,56.11,0,0,1-45.29,21.3q-13.83,0-23.57-5.36a53.82,53.82,0,0,1-16.79-15l-1.27,13c-.75,3.57-2.92,5.36-6.49,5.36Zm63.78-125.16a40.87,40.87,0,0,0-21.59,5.64,62.58,62.58,0,0,0-16.93,15.95v69.14q6.78,9.32,15,13.12a43.89,43.89,0,0,0,18.48,3.81q20,0,30.76-14.25t10.73-40.64a98.9,98.9,0,0,0-2.54-24q-2.4-10-7.06-16.36a27.52,27.52,0,0,0-11.43-9.46A38.08,38.08,0,0,0,2943.6,1705.52Zm176.27,5.78a5.58,5.58,0,0,1-5.23,3.11,9.86,9.86,0,0,1-4.79-1.55q-2.68-1.56-6.63-3.39a50.71,50.71,0,0,0-9.18-3.53,42.26,42.26,0,0,0-12.69-1.69,36,36,0,0,0-11.43,1.69,27.32,27.32,0,0,0-8.75,4.38,20.63,20.63,0,0,0-5.51,6.63,17.75,17.75,0,0,0-1.83,8,13.69,13.69,0,0,0,3.11,9.17,28.27,28.27,0,0,0,8.46,6.35,77.27,77.27,0,0,0,11.85,4.8q6.63,2,13.55,4.37t13.69,5.09a49.41,49.41,0,0,1,11.85,7,31.24,31.24,0,0,1,8.33,10.44,30.82,30.82,0,0,1,3.24,14.68,47.27,47.27,0,0,1-3.53,18.34,40.55,40.55,0,0,1-10.44,14.53,50.91,50.91,0,0,1-16.93,9.6,69.64,69.64,0,0,1-23.14,3.53,73.09,73.09,0,0,1-27.09-4.8,69.83,69.83,0,0,1-20.61-12.56l5.93-9.59a8.6,8.6,0,0,1,2.68-2.83,7.53,7.53,0,0,1,4.09-1,9.4,9.4,0,0,1,5.36,2q2.83,2,6.78,4.38a56.46,56.46,0,0,0,9.74,4.37,44.91,44.91,0,0,0,14.39,2A40.75,40.75,0,0,0,3088,1813a28.13,28.13,0,0,0,9.17-5.22,19.63,19.63,0,0,0,5.36-7.48,22.5,22.5,0,0,0,1.84-9,14.52,14.52,0,0,0-3.25-9.74,24.76,24.76,0,0,0-8.33-6.63,60.78,60.78,0,0,0-12-4.79l-13.68-4.38q-6.93-2.25-13.69-5.08a50.28,50.28,0,0,1-11.85-7.34,33.76,33.76,0,0,1-8.47-10.72A36.05,36.05,0,0,1,3030,1727a38.4,38.4,0,0,1,13.27-28.93,47.86,47.86,0,0,1,15.94-9.17,63.78,63.78,0,0,1,21.59-3.39A66.79,66.79,0,0,1,3106,1690a58.77,58.77,0,0,1,19.47,12.13Z"/></svg>