<svg width="25" height="17" viewBox="0 0 25 17" fill="none" xmlns="http://www.w3.org/2000/svg">
<path d="M16.4608 8.08469C15.8418 8.08469 15.2595 7.75991 14.9445 7.24027L12.5894 3.39346L10.238 7.24027C9.91936 7.76352 9.337 8.0883 8.71802 8.0883C8.5532 8.0883 8.38838 8.06665 8.23089 8.01974L3.21307 6.60515V13.0285C3.21307 13.559 3.57933 14.0209 4.09943 14.1472L12.0181 16.0995C12.3916 16.1897 12.7835 16.1897 13.1535 16.0995L21.0794 14.1472C21.5995 14.0173 21.9658 13.5554 21.9658 13.0285V6.60515L16.948 8.01613C16.7905 8.06304 16.6257 8.08469 16.4608 8.08469ZM24.2476 4.0358L22.3613 0.326112C22.2478 0.102376 22.0024 -0.0275353 21.7497 0.0049425L12.5894 1.1561L15.9481 6.64484C16.0872 6.87219 16.3656 6.98045 16.6257 6.90827L23.874 4.86939C24.2366 4.76474 24.4124 4.36779 24.2476 4.0358V4.0358ZM2.81751 0.326112L0.931247 4.0358C0.762765 4.36779 0.942235 4.76474 1.30117 4.86578L8.54953 6.90467C8.80958 6.97684 9.08794 6.86858 9.22712 6.64123L12.5894 1.1561L3.4255 0.0049425C3.17278 -0.0239266 2.93105 0.102376 2.81751 0.326112V0.326112Z" fill="#7C7C7C"/>
</svg>
