<svg width="22" height="18" viewBox="0 0 22 18" fill="none" xmlns="http://www.w3.org/2000/svg">
<path d="M18.3984 4.09587C18.215 3.78635 17.9517 3.52898 17.6346 3.34935C17.3175 3.16971 16.9577 3.07406 16.5909 3.0719H14.0373V1.02397C14.0373 0.752394 13.9266 0.491944 13.7295 0.299913C13.5325 0.107882 13.2652 0 12.9865 0H2.47783C1.92041 0 1.38583 0.215764 0.991681 0.599826C0.59753 0.983888 0.376099 1.50479 0.376099 2.04793V12.2876C0.376477 12.6467 0.473769 12.9995 0.658215 13.3104C0.842662 13.6213 1.10778 13.8795 1.42696 14.0591C1.38934 15.0096 1.74076 15.9357 2.40392 16.6337C3.06708 17.3318 3.98765 17.7445 4.96312 17.7812C5.93859 17.8179 6.88906 17.4754 7.60543 16.8292C8.3218 16.1831 8.74539 15.286 8.78301 14.3355H12.0407C12.1569 15.1923 12.5887 15.9787 13.2556 16.5484C13.9226 17.118 14.7793 17.4321 15.6662 17.4321C16.5531 17.4321 17.4098 17.118 18.0767 16.5484C18.7437 15.9787 19.1755 15.1923 19.2917 14.3355C19.8491 14.3355 20.3837 14.1198 20.7778 13.7357C21.172 13.3517 21.3934 12.8308 21.3934 12.2876V9.21571C21.3917 9.0289 21.3411 8.84561 21.2463 8.68324L18.3984 4.09587ZM14.0373 5.11984H16.5909L18.4825 8.19174H14.0373V5.11984ZM5.10499 15.3595C4.79323 15.3595 4.48847 15.2694 4.22925 15.1007C3.97002 14.9319 3.76799 14.692 3.64868 14.4113C3.52937 14.1307 3.49816 13.8219 3.55898 13.5239C3.6198 13.226 3.76993 12.9523 3.99038 12.7375C4.21083 12.5227 4.4917 12.3764 4.79747 12.3171C5.10324 12.2579 5.42018 12.2883 5.70821 12.4045C5.99624 12.5208 6.24243 12.7176 6.41563 12.9702C6.58884 13.2228 6.68129 13.5198 6.68129 13.8236C6.68129 14.2309 6.51521 14.6216 6.2196 14.9096C5.92399 15.1977 5.52305 15.3595 5.10499 15.3595ZM15.6136 15.3595C15.3019 15.3595 14.9971 15.2694 14.7379 15.1007C14.4787 14.9319 14.2766 14.692 14.1573 14.4113C14.038 14.1307 14.0068 13.8219 14.0676 13.5239C14.1284 13.226 14.2786 12.9523 14.499 12.7375C14.7195 12.5227 15.0003 12.3764 15.3061 12.3171C15.6119 12.2579 15.9288 12.2883 16.2169 12.4045C16.5049 12.5208 16.7511 12.7176 16.9243 12.9702C17.0975 13.2228 17.1899 13.5198 17.1899 13.8236C17.1899 14.2309 17.0239 14.6216 16.7282 14.9096C16.4326 15.1977 16.0317 15.3595 15.6136 15.3595Z" fill="#7C7C7C"/>
</svg>
