<svg width="4521" height="2415" viewBox="0 0 4521 2415" fill="none" xmlns="http://www.w3.org/2000/svg">
<path d="M180 312.494C170.622 319.963 163.122 329.093 157.989 339.293C152.856 349.493 150.203 360.534 150.203 371.7C150.203 382.866 152.856 393.907 157.989 404.107C163.122 414.307 170.622 423.437 180 430.906V477.9C180 491.983 173.679 505.489 162.426 515.447C151.174 525.406 135.913 531 120 531H60C44.087 531 28.8258 525.406 17.5736 515.447C6.32142 505.489 0 491.983 0 477.9V430.906C9.37847 423.437 16.8777 414.307 22.011 404.107C27.1444 393.907 29.7971 382.866 29.7971 371.7C29.7971 360.534 27.1444 349.493 22.011 339.293C16.8777 329.093 9.37847 319.963 0 312.494V185.85C29.8968 145.867 49.4614 100.54 57.3 53.1H30V0H150V53.1H122.7C130.539 100.54 150.103 145.867 180 185.85V312.494Z" fill="#D1D1D1"/>
<path d="M2660 312.494C2650.62 319.963 2643.12 329.093 2637.99 339.293C2632.86 349.493 2630.2 360.534 2630.2 371.7C2630.2 382.866 2632.86 393.907 2637.99 404.107C2643.12 414.307 2650.62 423.437 2660 430.906V477.9C2660 491.983 2653.68 505.489 2642.43 515.447C2631.17 525.406 2615.91 531 2600 531H2540C2524.09 531 2508.83 525.406 2497.57 515.447C2486.32 505.489 2480 491.983 2480 477.9V430.906C2489.38 423.437 2496.88 414.307 2502.01 404.107C2507.14 393.907 2509.8 382.866 2509.8 371.7C2509.8 360.534 2507.14 349.493 2502.01 339.293C2496.88 329.093 2489.38 319.963 2480 312.494V185.85C2509.9 145.867 2529.46 100.54 2537.3 53.1H2510V0H2630V53.1H2602.7C2610.54 100.54 2630.1 145.867 2660 185.85V312.494Z" fill="#D1D1D1"/>
<path d="M1420.16 312.494C1410.77 319.963 1403.27 329.093 1398.13 339.293C1392.99 349.493 1390.34 360.534 1390.34 371.7C1390.34 382.866 1392.99 393.907 1398.13 404.107C1403.27 414.307 1410.77 423.437 1420.16 430.906V477.9C1420.16 491.983 1413.83 505.489 1402.57 515.447C1391.31 525.406 1376.03 531 1360.11 531H1300.05C1284.13 531 1268.85 525.406 1257.59 515.447C1246.33 505.489 1240 491.983 1240 477.9V430.906C1249.39 423.437 1256.89 414.307 1262.03 404.107C1267.17 393.907 1269.82 382.866 1269.82 371.7C1269.82 360.534 1267.17 349.493 1262.03 339.293C1256.89 329.093 1249.39 319.963 1240 312.494V185.85C1269.92 145.867 1289.51 100.54 1297.35 53.1H1270.03V0H1390.13V53.1H1362.81C1370.66 100.54 1390.24 145.867 1420.16 185.85V312.494Z" fill="#D1D1D1"/>
<path d="M800.162 312.494C790.775 319.963 783.269 329.093 778.131 339.293C772.993 349.493 770.338 360.534 770.338 371.7C770.338 382.866 772.993 393.907 778.131 404.107C783.269 414.307 790.775 423.437 800.162 430.906V477.9C800.162 491.983 793.834 505.489 782.572 515.447C771.31 525.406 756.035 531 740.108 531H680.054C664.127 531 648.852 525.406 637.589 515.447C626.327 505.489 620 491.983 620 477.9V430.906C629.387 423.437 636.893 414.307 642.031 404.107C647.169 393.907 649.824 382.866 649.824 371.7C649.824 360.534 647.169 349.493 642.031 339.293C636.893 329.093 629.387 319.963 620 312.494V185.85C649.924 145.867 669.506 100.54 677.351 53.1H650.027V0H770.135V53.1H742.81C750.656 100.54 770.238 145.867 800.162 185.85V312.494Z" fill="#D1D1D1"/>
<path d="M3280.16 312.494C3270.77 319.963 3263.27 329.093 3258.13 339.293C3252.99 349.493 3250.34 360.534 3250.34 371.7C3250.34 382.866 3252.99 393.907 3258.13 404.107C3263.27 414.307 3270.77 423.437 3280.16 430.906V477.9C3280.16 491.983 3273.83 505.489 3262.57 515.447C3251.31 525.406 3236.03 531 3220.11 531H3160.05C3144.13 531 3128.85 525.406 3117.59 515.447C3106.33 505.489 3100 491.983 3100 477.9V430.906C3109.39 423.437 3116.89 414.307 3122.03 404.107C3127.17 393.907 3129.82 382.866 3129.82 371.7C3129.82 360.534 3127.17 349.493 3122.03 339.293C3116.89 329.093 3109.39 319.963 3100 312.494V185.85C3129.92 145.867 3149.51 100.54 3157.35 53.1H3130.03V0H3250.13V53.1H3222.81C3230.66 100.54 3250.24 145.867 3280.16 185.85V312.494Z" fill="#D1D1D1"/>
<path d="M4210.16 312.494C4200.77 319.963 4193.27 329.093 4188.13 339.293C4182.99 349.493 4180.34 360.534 4180.34 371.7C4180.34 382.866 4182.99 393.907 4188.13 404.107C4193.27 414.307 4200.77 423.437 4210.16 430.906V477.9C4210.16 491.983 4203.83 505.489 4192.57 515.447C4181.31 525.406 4166.03 531 4150.11 531H4090.05C4074.13 531 4058.85 525.406 4047.59 515.447C4036.33 505.489 4030 491.983 4030 477.9V430.906C4039.39 423.437 4046.89 414.307 4052.03 404.107C4057.17 393.907 4059.82 382.866 4059.82 371.7C4059.82 360.534 4057.17 349.493 4052.03 339.293C4046.89 329.093 4039.39 319.963 4030 312.494V185.85C4059.92 145.867 4079.51 100.54 4087.35 53.1H4060.03V0H4180.13V53.1H4152.81C4160.66 100.54 4180.24 145.867 4210.16 185.85V312.494Z" fill="#D1D1D1"/>
<path d="M2040.16 312.494C2030.77 319.963 2023.27 329.093 2018.13 339.293C2012.99 349.493 2010.34 360.534 2010.34 371.7C2010.34 382.866 2012.99 393.907 2018.13 404.107C2023.27 414.307 2030.77 423.437 2040.16 430.906V477.9C2040.16 491.983 2033.83 505.489 2022.57 515.447C2011.31 525.406 1996.03 531 1980.11 531H1920.05C1904.13 531 1888.85 525.406 1877.59 515.447C1866.33 505.489 1860 491.983 1860 477.9V430.906C1869.39 423.437 1876.89 414.307 1882.03 404.107C1887.17 393.907 1889.82 382.866 1889.82 371.7C1889.82 360.534 1887.17 349.493 1882.03 339.293C1876.89 329.093 1869.39 319.963 1860 312.494V185.85C1889.92 145.867 1909.51 100.54 1917.35 53.1H1890.03V0H2010.13V53.1H1982.81C1990.66 100.54 2010.24 145.867 2040.16 185.85V312.494Z" fill="#D1D1D1"/>
<path d="M490 312.494C480.622 319.963 473.122 329.093 467.989 339.293C462.856 349.493 460.203 360.534 460.203 371.7C460.203 382.866 462.856 393.907 467.989 404.107C473.122 414.307 480.622 423.437 490 430.906V477.9C490 491.983 483.679 505.489 472.426 515.447C461.174 525.406 445.913 531 430 531H370C354.087 531 338.826 525.406 327.574 515.447C316.321 505.489 310 491.983 310 477.9V430.906C319.378 423.437 326.878 414.307 332.011 404.107C337.144 393.907 339.797 382.866 339.797 371.7C339.797 360.534 337.144 349.493 332.011 339.293C326.878 329.093 319.378 319.963 310 312.494V185.85C339.897 145.867 359.461 100.54 367.3 53.1H340V0H460V53.1H432.7C440.539 100.54 460.103 145.867 490 185.85V312.494Z" fill="#D1D1D1"/>
<path d="M2970 312.494C2960.62 319.963 2953.12 329.093 2947.99 339.293C2942.86 349.493 2940.2 360.534 2940.2 371.7C2940.2 382.866 2942.86 393.907 2947.99 404.107C2953.12 414.307 2960.62 423.437 2970 430.906V477.9C2970 491.983 2963.68 505.489 2952.43 515.447C2941.17 525.406 2925.91 531 2910 531H2850C2834.09 531 2818.83 525.406 2807.57 515.447C2796.32 505.489 2790 491.983 2790 477.9V430.906C2799.38 423.437 2806.88 414.307 2812.01 404.107C2817.14 393.907 2819.8 382.866 2819.8 371.7C2819.8 360.534 2817.14 349.493 2812.01 339.293C2806.88 329.093 2799.38 319.963 2790 312.494V185.85C2819.9 145.867 2839.46 100.54 2847.3 53.1H2820V0H2940V53.1H2912.7C2920.54 100.54 2940.1 145.867 2970 185.85V312.494Z" fill="#D1D1D1"/>
<path d="M3900 312.494C3890.62 319.963 3883.12 329.093 3877.99 339.293C3872.86 349.493 3870.2 360.534 3870.2 371.7C3870.2 382.866 3872.86 393.907 3877.99 404.107C3883.12 414.307 3890.62 423.437 3900 430.906V477.9C3900 491.983 3893.68 505.489 3882.43 515.447C3871.17 525.406 3855.91 531 3840 531H3780C3764.09 531 3748.83 525.406 3737.57 515.447C3726.32 505.489 3720 491.983 3720 477.9V430.906C3729.38 423.437 3736.88 414.307 3742.01 404.107C3747.14 393.907 3749.8 382.866 3749.8 371.7C3749.8 360.534 3747.14 349.493 3742.01 339.293C3736.88 329.093 3729.38 319.963 3720 312.494V185.85C3749.9 145.867 3769.46 100.54 3777.3 53.1H3750V0H3870V53.1H3842.7C3850.54 100.54 3870.1 145.867 3900 185.85V312.494Z" fill="#D1D1D1"/>
<path d="M1730.16 312.494C1720.77 319.963 1713.27 329.093 1708.13 339.293C1702.99 349.493 1700.34 360.534 1700.34 371.7C1700.34 382.866 1702.99 393.907 1708.13 404.107C1713.27 414.307 1720.77 423.437 1730.16 430.906V477.9C1730.16 491.983 1723.83 505.489 1712.57 515.447C1701.31 525.406 1686.03 531 1670.11 531H1610.05C1594.13 531 1578.85 525.406 1567.59 515.447C1556.33 505.489 1550 491.983 1550 477.9V430.906C1559.39 423.437 1566.89 414.307 1572.03 404.107C1577.17 393.907 1579.82 382.866 1579.82 371.7C1579.82 360.534 1577.17 349.493 1572.03 339.293C1566.89 329.093 1559.39 319.963 1550 312.494V185.85C1579.92 145.867 1599.51 100.54 1607.35 53.1H1580.03V0H1700.13V53.1H1672.81C1680.66 100.54 1700.24 145.867 1730.16 185.85V312.494Z" fill="#D1D1D1"/>
<path d="M1110.16 312.494C1100.77 319.963 1093.27 329.093 1088.13 339.293C1082.99 349.493 1080.34 360.534 1080.34 371.7C1080.34 382.866 1082.99 393.907 1088.13 404.107C1093.27 414.307 1100.77 423.437 1110.16 430.906V477.9C1110.16 491.983 1103.83 505.489 1092.57 515.447C1081.31 525.406 1066.03 531 1050.11 531H990.054C974.127 531 958.852 525.406 947.589 515.447C936.327 505.489 930 491.983 930 477.9V430.906C939.387 423.437 946.893 414.307 952.031 404.107C957.169 393.907 959.824 382.866 959.824 371.7C959.824 360.534 957.169 349.493 952.031 339.293C946.893 329.093 939.387 319.963 930 312.494V185.85C959.924 145.867 979.506 100.54 987.351 53.1H960.027V0H1080.13V53.1H1052.81C1060.66 100.54 1080.24 145.867 1110.16 185.85V312.494Z" fill="#D1D1D1"/>
<path d="M3590.16 312.494C3580.77 319.963 3573.27 329.093 3568.13 339.293C3562.99 349.493 3560.34 360.534 3560.34 371.7C3560.34 382.866 3562.99 393.907 3568.13 404.107C3573.27 414.307 3580.77 423.437 3590.16 430.906V477.9C3590.16 491.983 3583.83 505.489 3572.57 515.447C3561.31 525.406 3546.03 531 3530.11 531H3470.05C3454.13 531 3438.85 525.406 3427.59 515.447C3416.33 505.489 3410 491.983 3410 477.9V430.906C3419.39 423.437 3426.89 414.307 3432.03 404.107C3437.17 393.907 3439.82 382.866 3439.82 371.7C3439.82 360.534 3437.17 349.493 3432.03 339.293C3426.89 329.093 3419.39 319.963 3410 312.494V185.85C3439.92 145.867 3459.51 100.54 3467.35 53.1H3440.03V0H3560.13V53.1H3532.81C3540.66 100.54 3560.24 145.867 3590.16 185.85V312.494Z" fill="#D1D1D1"/>
<path d="M4520.16 312.494C4510.77 319.963 4503.27 329.093 4498.13 339.293C4492.99 349.493 4490.34 360.534 4490.34 371.7C4490.34 382.866 4492.99 393.907 4498.13 404.107C4503.27 414.307 4510.77 423.437 4520.16 430.906V477.9C4520.16 491.983 4513.83 505.489 4502.57 515.447C4491.31 525.406 4476.03 531 4460.11 531H4400.05C4384.13 531 4368.85 525.406 4357.59 515.447C4346.33 505.489 4340 491.983 4340 477.9V430.906C4349.39 423.437 4356.89 414.307 4362.03 404.107C4367.17 393.907 4369.82 382.866 4369.82 371.7C4369.82 360.534 4367.17 349.493 4362.03 339.293C4356.89 329.093 4349.39 319.963 4340 312.494V185.85C4369.92 145.867 4389.51 100.54 4397.35 53.1H4370.03V0H4490.13V53.1H4462.81C4470.66 100.54 4490.24 145.867 4520.16 185.85V312.494Z" fill="#D1D1D1"/>
<path d="M2350.16 312.494C2340.77 319.963 2333.27 329.093 2328.13 339.293C2322.99 349.493 2320.34 360.534 2320.34 371.7C2320.34 382.866 2322.99 393.907 2328.13 404.107C2333.27 414.307 2340.77 423.437 2350.16 430.906V477.9C2350.16 491.983 2343.83 505.489 2332.57 515.447C2321.31 525.406 2306.03 531 2290.11 531H2230.05C2214.13 531 2198.85 525.406 2187.59 515.447C2176.33 505.489 2170 491.983 2170 477.9V430.906C2179.39 423.437 2186.89 414.307 2192.03 404.107C2197.17 393.907 2199.82 382.866 2199.82 371.7C2199.82 360.534 2197.17 349.493 2192.03 339.293C2186.89 329.093 2179.39 319.963 2170 312.494V185.85C2199.92 145.867 2219.51 100.54 2227.35 53.1H2200.03V0H2320.13V53.1H2292.81C2300.66 100.54 2320.24 145.867 2350.16 185.85V312.494Z" fill="#D1D1D1"/>
<path d="M180 940.494C170.622 947.963 163.122 957.093 157.989 967.293C152.856 977.493 150.203 988.534 150.203 999.7C150.203 1010.87 152.856 1021.91 157.989 1032.11C163.122 1042.31 170.622 1051.44 180 1058.91V1105.9C180 1119.98 173.679 1133.49 162.426 1143.45C151.174 1153.41 135.913 1159 120 1159H60C44.087 1159 28.8258 1153.41 17.5736 1143.45C6.32142 1133.49 0 1119.98 0 1105.9V1058.91C9.37847 1051.44 16.8777 1042.31 22.011 1032.11C27.1444 1021.91 29.7971 1010.87 29.7971 999.7C29.7971 988.534 27.1444 977.493 22.011 967.293C16.8777 957.093 9.37847 947.963 0 940.494V813.85C29.8968 773.867 49.4614 728.54 57.3 681.1H30V628H150V681.1H122.7C130.539 728.54 150.103 773.867 180 813.85V940.494Z" fill="#D1D1D1"/>
<path d="M2660 940.494C2650.62 947.963 2643.12 957.093 2637.99 967.293C2632.86 977.493 2630.2 988.534 2630.2 999.7C2630.2 1010.87 2632.86 1021.91 2637.99 1032.11C2643.12 1042.31 2650.62 1051.44 2660 1058.91V1105.9C2660 1119.98 2653.68 1133.49 2642.43 1143.45C2631.17 1153.41 2615.91 1159 2600 1159H2540C2524.09 1159 2508.83 1153.41 2497.57 1143.45C2486.32 1133.49 2480 1119.98 2480 1105.9V1058.91C2489.38 1051.44 2496.88 1042.31 2502.01 1032.11C2507.14 1021.91 2509.8 1010.87 2509.8 999.7C2509.8 988.534 2507.14 977.493 2502.01 967.293C2496.88 957.093 2489.38 947.963 2480 940.494V813.85C2509.9 773.867 2529.46 728.54 2537.3 681.1H2510V628H2630V681.1H2602.7C2610.54 728.54 2630.1 773.867 2660 813.85V940.494Z" fill="#D1D1D1"/>
<path d="M1420.16 940.494C1410.77 947.963 1403.27 957.093 1398.13 967.293C1392.99 977.493 1390.34 988.534 1390.34 999.7C1390.34 1010.87 1392.99 1021.91 1398.13 1032.11C1403.27 1042.31 1410.77 1051.44 1420.16 1058.91V1105.9C1420.16 1119.98 1413.83 1133.49 1402.57 1143.45C1391.31 1153.41 1376.03 1159 1360.11 1159H1300.05C1284.13 1159 1268.85 1153.41 1257.59 1143.45C1246.33 1133.49 1240 1119.98 1240 1105.9V1058.91C1249.39 1051.44 1256.89 1042.31 1262.03 1032.11C1267.17 1021.91 1269.82 1010.87 1269.82 999.7C1269.82 988.534 1267.17 977.493 1262.03 967.293C1256.89 957.093 1249.39 947.963 1240 940.494V813.85C1269.92 773.867 1289.51 728.54 1297.35 681.1H1270.03V628H1390.13V681.1H1362.81C1370.66 728.54 1390.24 773.867 1420.16 813.85V940.494Z" fill="#D1D1D1"/>
<path d="M800.162 940.494C790.775 947.963 783.269 957.093 778.131 967.293C772.993 977.493 770.338 988.534 770.338 999.7C770.338 1010.87 772.993 1021.91 778.131 1032.11C783.269 1042.31 790.775 1051.44 800.162 1058.91V1105.9C800.162 1119.98 793.834 1133.49 782.572 1143.45C771.31 1153.41 756.035 1159 740.108 1159H680.054C664.127 1159 648.852 1153.41 637.589 1143.45C626.327 1133.49 620 1119.98 620 1105.9V1058.91C629.387 1051.44 636.893 1042.31 642.031 1032.11C647.169 1021.91 649.824 1010.87 649.824 999.7C649.824 988.534 647.169 977.493 642.031 967.293C636.893 957.093 629.387 947.963 620 940.494V813.85C649.924 773.867 669.506 728.54 677.351 681.1H650.027V628H770.135V681.1H742.81C750.656 728.54 770.238 773.867 800.162 813.85V940.494Z" fill="#D1D1D1"/>
<path d="M3280.16 940.494C3270.77 947.963 3263.27 957.093 3258.13 967.293C3252.99 977.493 3250.34 988.534 3250.34 999.7C3250.34 1010.87 3252.99 1021.91 3258.13 1032.11C3263.27 1042.31 3270.77 1051.44 3280.16 1058.91V1105.9C3280.16 1119.98 3273.83 1133.49 3262.57 1143.45C3251.31 1153.41 3236.03 1159 3220.11 1159H3160.05C3144.13 1159 3128.85 1153.41 3117.59 1143.45C3106.33 1133.49 3100 1119.98 3100 1105.9V1058.91C3109.39 1051.44 3116.89 1042.31 3122.03 1032.11C3127.17 1021.91 3129.82 1010.87 3129.82 999.7C3129.82 988.534 3127.17 977.493 3122.03 967.293C3116.89 957.093 3109.39 947.963 3100 940.494V813.85C3129.92 773.867 3149.51 728.54 3157.35 681.1H3130.03V628H3250.13V681.1H3222.81C3230.66 728.54 3250.24 773.867 3280.16 813.85V940.494Z" fill="#D1D1D1"/>
<path d="M4210.16 940.494C4200.77 947.963 4193.27 957.093 4188.13 967.293C4182.99 977.493 4180.34 988.534 4180.34 999.7C4180.34 1010.87 4182.99 1021.91 4188.13 1032.11C4193.27 1042.31 4200.77 1051.44 4210.16 1058.91V1105.9C4210.16 1119.98 4203.83 1133.49 4192.57 1143.45C4181.31 1153.41 4166.03 1159 4150.11 1159H4090.05C4074.13 1159 4058.85 1153.41 4047.59 1143.45C4036.33 1133.49 4030 1119.98 4030 1105.9V1058.91C4039.39 1051.44 4046.89 1042.31 4052.03 1032.11C4057.17 1021.91 4059.82 1010.87 4059.82 999.7C4059.82 988.534 4057.17 977.493 4052.03 967.293C4046.89 957.093 4039.39 947.963 4030 940.494V813.85C4059.92 773.867 4079.51 728.54 4087.35 681.1H4060.03V628H4180.13V681.1H4152.81C4160.66 728.54 4180.24 773.867 4210.16 813.85V940.494Z" fill="#D1D1D1"/>
<path d="M2040.16 940.494C2030.77 947.963 2023.27 957.093 2018.13 967.293C2012.99 977.493 2010.34 988.534 2010.34 999.7C2010.34 1010.87 2012.99 1021.91 2018.13 1032.11C2023.27 1042.31 2030.77 1051.44 2040.16 1058.91V1105.9C2040.16 1119.98 2033.83 1133.49 2022.57 1143.45C2011.31 1153.41 1996.03 1159 1980.11 1159H1920.05C1904.13 1159 1888.85 1153.41 1877.59 1143.45C1866.33 1133.49 1860 1119.98 1860 1105.9V1058.91C1869.39 1051.44 1876.89 1042.31 1882.03 1032.11C1887.17 1021.91 1889.82 1010.87 1889.82 999.7C1889.82 988.534 1887.17 977.493 1882.03 967.293C1876.89 957.093 1869.39 947.963 1860 940.494V813.85C1889.92 773.867 1909.51 728.54 1917.35 681.1H1890.03V628H2010.13V681.1H1982.81C1990.66 728.54 2010.24 773.867 2040.16 813.85V940.494Z" fill="#D1D1D1"/>
<path d="M490 940.494C480.622 947.963 473.122 957.093 467.989 967.293C462.856 977.493 460.203 988.534 460.203 999.7C460.203 1010.87 462.856 1021.91 467.989 1032.11C473.122 1042.31 480.622 1051.44 490 1058.91V1105.9C490 1119.98 483.679 1133.49 472.426 1143.45C461.174 1153.41 445.913 1159 430 1159H370C354.087 1159 338.826 1153.41 327.574 1143.45C316.321 1133.49 310 1119.98 310 1105.9V1058.91C319.378 1051.44 326.878 1042.31 332.011 1032.11C337.144 1021.91 339.797 1010.87 339.797 999.7C339.797 988.534 337.144 977.493 332.011 967.293C326.878 957.093 319.378 947.963 310 940.494V813.85C339.897 773.867 359.461 728.54 367.3 681.1H340V628H460V681.1H432.7C440.539 728.54 460.103 773.867 490 813.85V940.494Z" fill="#D1D1D1"/>
<path d="M2970 940.494C2960.62 947.963 2953.12 957.093 2947.99 967.293C2942.86 977.493 2940.2 988.534 2940.2 999.7C2940.2 1010.87 2942.86 1021.91 2947.99 1032.11C2953.12 1042.31 2960.62 1051.44 2970 1058.91V1105.9C2970 1119.98 2963.68 1133.49 2952.43 1143.45C2941.17 1153.41 2925.91 1159 2910 1159H2850C2834.09 1159 2818.83 1153.41 2807.57 1143.45C2796.32 1133.49 2790 1119.98 2790 1105.9V1058.91C2799.38 1051.44 2806.88 1042.31 2812.01 1032.11C2817.14 1021.91 2819.8 1010.87 2819.8 999.7C2819.8 988.534 2817.14 977.493 2812.01 967.293C2806.88 957.093 2799.38 947.963 2790 940.494V813.85C2819.9 773.867 2839.46 728.54 2847.3 681.1H2820V628H2940V681.1H2912.7C2920.54 728.54 2940.1 773.867 2970 813.85V940.494Z" fill="#D1D1D1"/>
<path d="M3900 940.494C3890.62 947.963 3883.12 957.093 3877.99 967.293C3872.86 977.493 3870.2 988.534 3870.2 999.7C3870.2 1010.87 3872.86 1021.91 3877.99 1032.11C3883.12 1042.31 3890.62 1051.44 3900 1058.91V1105.9C3900 1119.98 3893.68 1133.49 3882.43 1143.45C3871.17 1153.41 3855.91 1159 3840 1159H3780C3764.09 1159 3748.83 1153.41 3737.57 1143.45C3726.32 1133.49 3720 1119.98 3720 1105.9V1058.91C3729.38 1051.44 3736.88 1042.31 3742.01 1032.11C3747.14 1021.91 3749.8 1010.87 3749.8 999.7C3749.8 988.534 3747.14 977.493 3742.01 967.293C3736.88 957.093 3729.38 947.963 3720 940.494V813.85C3749.9 773.867 3769.46 728.54 3777.3 681.1H3750V628H3870V681.1H3842.7C3850.54 728.54 3870.1 773.867 3900 813.85V940.494Z" fill="#D1D1D1"/>
<path d="M1730.16 940.494C1720.77 947.963 1713.27 957.093 1708.13 967.293C1702.99 977.493 1700.34 988.534 1700.34 999.7C1700.34 1010.87 1702.99 1021.91 1708.13 1032.11C1713.27 1042.31 1720.77 1051.44 1730.16 1058.91V1105.9C1730.16 1119.98 1723.83 1133.49 1712.57 1143.45C1701.31 1153.41 1686.03 1159 1670.11 1159H1610.05C1594.13 1159 1578.85 1153.41 1567.59 1143.45C1556.33 1133.49 1550 1119.98 1550 1105.9V1058.91C1559.39 1051.44 1566.89 1042.31 1572.03 1032.11C1577.17 1021.91 1579.82 1010.87 1579.82 999.7C1579.82 988.534 1577.17 977.493 1572.03 967.293C1566.89 957.093 1559.39 947.963 1550 940.494V813.85C1579.92 773.867 1599.51 728.54 1607.35 681.1H1580.03V628H1700.13V681.1H1672.81C1680.66 728.54 1700.24 773.867 1730.16 813.85V940.494Z" fill="#D1D1D1"/>
<path d="M1110.16 940.494C1100.77 947.963 1093.27 957.093 1088.13 967.293C1082.99 977.493 1080.34 988.534 1080.34 999.7C1080.34 1010.87 1082.99 1021.91 1088.13 1032.11C1093.27 1042.31 1100.77 1051.44 1110.16 1058.91V1105.9C1110.16 1119.98 1103.83 1133.49 1092.57 1143.45C1081.31 1153.41 1066.03 1159 1050.11 1159H990.054C974.127 1159 958.852 1153.41 947.589 1143.45C936.327 1133.49 930 1119.98 930 1105.9V1058.91C939.387 1051.44 946.893 1042.31 952.031 1032.11C957.169 1021.91 959.824 1010.87 959.824 999.7C959.824 988.534 957.169 977.493 952.031 967.293C946.893 957.093 939.387 947.963 930 940.494V813.85C959.924 773.867 979.506 728.54 987.351 681.1H960.027V628H1080.13V681.1H1052.81C1060.66 728.54 1080.24 773.867 1110.16 813.85V940.494Z" fill="#D1D1D1"/>
<path d="M3590.16 940.494C3580.77 947.963 3573.27 957.093 3568.13 967.293C3562.99 977.493 3560.34 988.534 3560.34 999.7C3560.34 1010.87 3562.99 1021.91 3568.13 1032.11C3573.27 1042.31 3580.77 1051.44 3590.16 1058.91V1105.9C3590.16 1119.98 3583.83 1133.49 3572.57 1143.45C3561.31 1153.41 3546.03 1159 3530.11 1159H3470.05C3454.13 1159 3438.85 1153.41 3427.59 1143.45C3416.33 1133.49 3410 1119.98 3410 1105.9V1058.91C3419.39 1051.44 3426.89 1042.31 3432.03 1032.11C3437.17 1021.91 3439.82 1010.87 3439.82 999.7C3439.82 988.534 3437.17 977.493 3432.03 967.293C3426.89 957.093 3419.39 947.963 3410 940.494V813.85C3439.92 773.867 3459.51 728.54 3467.35 681.1H3440.03V628H3560.13V681.1H3532.81C3540.66 728.54 3560.24 773.867 3590.16 813.85V940.494Z" fill="#D1D1D1"/>
<path d="M4520.16 940.494C4510.77 947.963 4503.27 957.093 4498.13 967.293C4492.99 977.493 4490.34 988.534 4490.34 999.7C4490.34 1010.87 4492.99 1021.91 4498.13 1032.11C4503.27 1042.31 4510.77 1051.44 4520.16 1058.91V1105.9C4520.16 1119.98 4513.83 1133.49 4502.57 1143.45C4491.31 1153.41 4476.03 1159 4460.11 1159H4400.05C4384.13 1159 4368.85 1153.41 4357.59 1143.45C4346.33 1133.49 4340 1119.98 4340 1105.9V1058.91C4349.39 1051.44 4356.89 1042.31 4362.03 1032.11C4367.17 1021.91 4369.82 1010.87 4369.82 999.7C4369.82 988.534 4367.17 977.493 4362.03 967.293C4356.89 957.093 4349.39 947.963 4340 940.494V813.85C4369.92 773.867 4389.51 728.54 4397.35 681.1H4370.03V628H4490.13V681.1H4462.81C4470.66 728.54 4490.24 773.867 4520.16 813.85V940.494Z" fill="#D1D1D1"/>
<path d="M2350.16 940.494C2340.77 947.963 2333.27 957.093 2328.13 967.293C2322.99 977.493 2320.34 988.534 2320.34 999.7C2320.34 1010.87 2322.99 1021.91 2328.13 1032.11C2333.27 1042.31 2340.77 1051.44 2350.16 1058.91V1105.9C2350.16 1119.98 2343.83 1133.49 2332.57 1143.45C2321.31 1153.41 2306.03 1159 2290.11 1159H2230.05C2214.13 1159 2198.85 1153.41 2187.59 1143.45C2176.33 1133.49 2170 1119.98 2170 1105.9V1058.91C2179.39 1051.44 2186.89 1042.31 2192.03 1032.11C2197.17 1021.91 2199.82 1010.87 2199.82 999.7C2199.82 988.534 2197.17 977.493 2192.03 967.293C2186.89 957.093 2179.39 947.963 2170 940.494V813.85C2199.92 773.867 2219.51 728.54 2227.35 681.1H2200.03V628H2320.13V681.1H2292.81C2300.66 728.54 2320.24 773.867 2350.16 813.85V940.494Z" fill="#D1D1D1"/>
<path d="M180 1568.49C170.622 1575.96 163.122 1585.09 157.989 1595.29C152.856 1605.49 150.203 1616.53 150.203 1627.7C150.203 1638.87 152.856 1649.91 157.989 1660.11C163.122 1670.31 170.622 1679.44 180 1686.91V1733.9C180 1747.98 173.679 1761.49 162.426 1771.45C151.174 1781.41 135.913 1787 120 1787H60C44.087 1787 28.8258 1781.41 17.5736 1771.45C6.32142 1761.49 0 1747.98 0 1733.9V1686.91C9.37847 1679.44 16.8777 1670.31 22.011 1660.11C27.1444 1649.91 29.7971 1638.87 29.7971 1627.7C29.7971 1616.53 27.1444 1605.49 22.011 1595.29C16.8777 1585.09 9.37847 1575.96 0 1568.49V1441.85C29.8968 1401.87 49.4614 1356.54 57.3 1309.1H30V1256H150V1309.1H122.7C130.539 1356.54 150.103 1401.87 180 1441.85V1568.49Z" fill="#D1D1D1"/>
<path d="M2660 1568.49C2650.62 1575.96 2643.12 1585.09 2637.99 1595.29C2632.86 1605.49 2630.2 1616.53 2630.2 1627.7C2630.2 1638.87 2632.86 1649.91 2637.99 1660.11C2643.12 1670.31 2650.62 1679.44 2660 1686.91V1733.9C2660 1747.98 2653.68 1761.49 2642.43 1771.45C2631.17 1781.41 2615.91 1787 2600 1787H2540C2524.09 1787 2508.83 1781.41 2497.57 1771.45C2486.32 1761.49 2480 1747.98 2480 1733.9V1686.91C2489.38 1679.44 2496.88 1670.31 2502.01 1660.11C2507.14 1649.91 2509.8 1638.87 2509.8 1627.7C2509.8 1616.53 2507.14 1605.49 2502.01 1595.29C2496.88 1585.09 2489.38 1575.96 2480 1568.49V1441.85C2509.9 1401.87 2529.46 1356.54 2537.3 1309.1H2510V1256H2630V1309.1H2602.7C2610.54 1356.54 2630.1 1401.87 2660 1441.85V1568.49Z" fill="#D1D1D1"/>
<path d="M1420.16 1568.49C1410.77 1575.96 1403.27 1585.09 1398.13 1595.29C1392.99 1605.49 1390.34 1616.53 1390.34 1627.7C1390.34 1638.87 1392.99 1649.91 1398.13 1660.11C1403.27 1670.31 1410.77 1679.44 1420.16 1686.91V1733.9C1420.16 1747.98 1413.83 1761.49 1402.57 1771.45C1391.31 1781.41 1376.03 1787 1360.11 1787H1300.05C1284.13 1787 1268.85 1781.41 1257.59 1771.45C1246.33 1761.49 1240 1747.98 1240 1733.9V1686.91C1249.39 1679.44 1256.89 1670.31 1262.03 1660.11C1267.17 1649.91 1269.82 1638.87 1269.82 1627.7C1269.82 1616.53 1267.17 1605.49 1262.03 1595.29C1256.89 1585.09 1249.39 1575.96 1240 1568.49V1441.85C1269.92 1401.87 1289.51 1356.54 1297.35 1309.1H1270.03V1256H1390.13V1309.1H1362.81C1370.66 1356.54 1390.24 1401.87 1420.16 1441.85V1568.49Z" fill="#D1D1D1"/>
<path d="M800.162 1568.49C790.775 1575.96 783.269 1585.09 778.131 1595.29C772.993 1605.49 770.338 1616.53 770.338 1627.7C770.338 1638.87 772.993 1649.91 778.131 1660.11C783.269 1670.31 790.775 1679.44 800.162 1686.91V1733.9C800.162 1747.98 793.834 1761.49 782.572 1771.45C771.31 1781.41 756.035 1787 740.108 1787H680.054C664.127 1787 648.852 1781.41 637.589 1771.45C626.327 1761.49 620 1747.98 620 1733.9V1686.91C629.387 1679.44 636.893 1670.31 642.031 1660.11C647.169 1649.91 649.824 1638.87 649.824 1627.7C649.824 1616.53 647.169 1605.49 642.031 1595.29C636.893 1585.09 629.387 1575.96 620 1568.49V1441.85C649.924 1401.87 669.506 1356.54 677.351 1309.1H650.027V1256H770.135V1309.1H742.81C750.656 1356.54 770.238 1401.87 800.162 1441.85V1568.49Z" fill="#D1D1D1"/>
<path d="M3280.16 1568.49C3270.77 1575.96 3263.27 1585.09 3258.13 1595.29C3252.99 1605.49 3250.34 1616.53 3250.34 1627.7C3250.34 1638.87 3252.99 1649.91 3258.13 1660.11C3263.27 1670.31 3270.77 1679.44 3280.16 1686.91V1733.9C3280.16 1747.98 3273.83 1761.49 3262.57 1771.45C3251.31 1781.41 3236.03 1787 3220.11 1787H3160.05C3144.13 1787 3128.85 1781.41 3117.59 1771.45C3106.33 1761.49 3100 1747.98 3100 1733.9V1686.91C3109.39 1679.44 3116.89 1670.31 3122.03 1660.11C3127.17 1649.91 3129.82 1638.87 3129.82 1627.7C3129.82 1616.53 3127.17 1605.49 3122.03 1595.29C3116.89 1585.09 3109.39 1575.96 3100 1568.49V1441.85C3129.92 1401.87 3149.51 1356.54 3157.35 1309.1H3130.03V1256H3250.13V1309.1H3222.81C3230.66 1356.54 3250.24 1401.87 3280.16 1441.85V1568.49Z" fill="#D1D1D1"/>
<path d="M4210.16 1568.49C4200.77 1575.96 4193.27 1585.09 4188.13 1595.29C4182.99 1605.49 4180.34 1616.53 4180.34 1627.7C4180.34 1638.87 4182.99 1649.91 4188.13 1660.11C4193.27 1670.31 4200.77 1679.44 4210.16 1686.91V1733.9C4210.16 1747.98 4203.83 1761.49 4192.57 1771.45C4181.31 1781.41 4166.03 1787 4150.11 1787H4090.05C4074.13 1787 4058.85 1781.41 4047.59 1771.45C4036.33 1761.49 4030 1747.98 4030 1733.9V1686.91C4039.39 1679.44 4046.89 1670.31 4052.03 1660.11C4057.17 1649.91 4059.82 1638.87 4059.82 1627.7C4059.82 1616.53 4057.17 1605.49 4052.03 1595.29C4046.89 1585.09 4039.39 1575.96 4030 1568.49V1441.85C4059.92 1401.87 4079.51 1356.54 4087.35 1309.1H4060.03V1256H4180.13V1309.1H4152.81C4160.66 1356.54 4180.24 1401.87 4210.16 1441.85V1568.49Z" fill="#D1D1D1"/>
<path d="M2040.16 1568.49C2030.77 1575.96 2023.27 1585.09 2018.13 1595.29C2012.99 1605.49 2010.34 1616.53 2010.34 1627.7C2010.34 1638.87 2012.99 1649.91 2018.13 1660.11C2023.27 1670.31 2030.77 1679.44 2040.16 1686.91V1733.9C2040.16 1747.98 2033.83 1761.49 2022.57 1771.45C2011.31 1781.41 1996.03 1787 1980.11 1787H1920.05C1904.13 1787 1888.85 1781.41 1877.59 1771.45C1866.33 1761.49 1860 1747.98 1860 1733.9V1686.91C1869.39 1679.44 1876.89 1670.31 1882.03 1660.11C1887.17 1649.91 1889.82 1638.87 1889.82 1627.7C1889.82 1616.53 1887.17 1605.49 1882.03 1595.29C1876.89 1585.09 1869.39 1575.96 1860 1568.49V1441.85C1889.92 1401.87 1909.51 1356.54 1917.35 1309.1H1890.03V1256H2010.13V1309.1H1982.81C1990.66 1356.54 2010.24 1401.87 2040.16 1441.85V1568.49Z" fill="#D1D1D1"/>
<path d="M490 1568.49C480.622 1575.96 473.122 1585.09 467.989 1595.29C462.856 1605.49 460.203 1616.53 460.203 1627.7C460.203 1638.87 462.856 1649.91 467.989 1660.11C473.122 1670.31 480.622 1679.44 490 1686.91V1733.9C490 1747.98 483.679 1761.49 472.426 1771.45C461.174 1781.41 445.913 1787 430 1787H370C354.087 1787 338.826 1781.41 327.574 1771.45C316.321 1761.49 310 1747.98 310 1733.9V1686.91C319.378 1679.44 326.878 1670.31 332.011 1660.11C337.144 1649.91 339.797 1638.87 339.797 1627.7C339.797 1616.53 337.144 1605.49 332.011 1595.29C326.878 1585.09 319.378 1575.96 310 1568.49V1441.85C339.897 1401.87 359.461 1356.54 367.3 1309.1H340V1256H460V1309.1H432.7C440.539 1356.54 460.103 1401.87 490 1441.85V1568.49Z" fill="#D1D1D1"/>
<path d="M2970 1568.49C2960.62 1575.96 2953.12 1585.09 2947.99 1595.29C2942.86 1605.49 2940.2 1616.53 2940.2 1627.7C2940.2 1638.87 2942.86 1649.91 2947.99 1660.11C2953.12 1670.31 2960.62 1679.44 2970 1686.91V1733.9C2970 1747.98 2963.68 1761.49 2952.43 1771.45C2941.17 1781.41 2925.91 1787 2910 1787H2850C2834.09 1787 2818.83 1781.41 2807.57 1771.45C2796.32 1761.49 2790 1747.98 2790 1733.9V1686.91C2799.38 1679.44 2806.88 1670.31 2812.01 1660.11C2817.14 1649.91 2819.8 1638.87 2819.8 1627.7C2819.8 1616.53 2817.14 1605.49 2812.01 1595.29C2806.88 1585.09 2799.38 1575.96 2790 1568.49V1441.85C2819.9 1401.87 2839.46 1356.54 2847.3 1309.1H2820V1256H2940V1309.1H2912.7C2920.54 1356.54 2940.1 1401.87 2970 1441.85V1568.49Z" fill="#D1D1D1"/>
<path d="M3900 1568.49C3890.62 1575.96 3883.12 1585.09 3877.99 1595.29C3872.86 1605.49 3870.2 1616.53 3870.2 1627.7C3870.2 1638.87 3872.86 1649.91 3877.99 1660.11C3883.12 1670.31 3890.62 1679.44 3900 1686.91V1733.9C3900 1747.98 3893.68 1761.49 3882.43 1771.45C3871.17 1781.41 3855.91 1787 3840 1787H3780C3764.09 1787 3748.83 1781.41 3737.57 1771.45C3726.32 1761.49 3720 1747.98 3720 1733.9V1686.91C3729.38 1679.44 3736.88 1670.31 3742.01 1660.11C3747.14 1649.91 3749.8 1638.87 3749.8 1627.7C3749.8 1616.53 3747.14 1605.49 3742.01 1595.29C3736.88 1585.09 3729.38 1575.96 3720 1568.49V1441.85C3749.9 1401.87 3769.46 1356.54 3777.3 1309.1H3750V1256H3870V1309.1H3842.7C3850.54 1356.54 3870.1 1401.87 3900 1441.85V1568.49Z" fill="#D1D1D1"/>
<path d="M1730.16 1568.49C1720.77 1575.96 1713.27 1585.09 1708.13 1595.29C1702.99 1605.49 1700.34 1616.53 1700.34 1627.7C1700.34 1638.87 1702.99 1649.91 1708.13 1660.11C1713.27 1670.31 1720.77 1679.44 1730.16 1686.91V1733.9C1730.16 1747.98 1723.83 1761.49 1712.57 1771.45C1701.31 1781.41 1686.03 1787 1670.11 1787H1610.05C1594.13 1787 1578.85 1781.41 1567.59 1771.45C1556.33 1761.49 1550 1747.98 1550 1733.9V1686.91C1559.39 1679.44 1566.89 1670.31 1572.03 1660.11C1577.17 1649.91 1579.82 1638.87 1579.82 1627.7C1579.82 1616.53 1577.17 1605.49 1572.03 1595.29C1566.89 1585.09 1559.39 1575.96 1550 1568.49V1441.85C1579.92 1401.87 1599.51 1356.54 1607.35 1309.1H1580.03V1256H1700.13V1309.1H1672.81C1680.66 1356.54 1700.24 1401.87 1730.16 1441.85V1568.49Z" fill="#D1D1D1"/>
<path d="M1110.16 1568.49C1100.77 1575.96 1093.27 1585.09 1088.13 1595.29C1082.99 1605.49 1080.34 1616.53 1080.34 1627.7C1080.34 1638.87 1082.99 1649.91 1088.13 1660.11C1093.27 1670.31 1100.77 1679.44 1110.16 1686.91V1733.9C1110.16 1747.98 1103.83 1761.49 1092.57 1771.45C1081.31 1781.41 1066.03 1787 1050.11 1787H990.054C974.127 1787 958.852 1781.41 947.589 1771.45C936.327 1761.49 930 1747.98 930 1733.9V1686.91C939.387 1679.44 946.893 1670.31 952.031 1660.11C957.169 1649.91 959.824 1638.87 959.824 1627.7C959.824 1616.53 957.169 1605.49 952.031 1595.29C946.893 1585.09 939.387 1575.96 930 1568.49V1441.85C959.924 1401.87 979.506 1356.54 987.351 1309.1H960.027V1256H1080.13V1309.1H1052.81C1060.66 1356.54 1080.24 1401.87 1110.16 1441.85V1568.49Z" fill="#D1D1D1"/>
<path d="M3590.16 1568.49C3580.77 1575.96 3573.27 1585.09 3568.13 1595.29C3562.99 1605.49 3560.34 1616.53 3560.34 1627.7C3560.34 1638.87 3562.99 1649.91 3568.13 1660.11C3573.27 1670.31 3580.77 1679.44 3590.16 1686.91V1733.9C3590.16 1747.98 3583.83 1761.49 3572.57 1771.45C3561.31 1781.41 3546.03 1787 3530.11 1787H3470.05C3454.13 1787 3438.85 1781.41 3427.59 1771.45C3416.33 1761.49 3410 1747.98 3410 1733.9V1686.91C3419.39 1679.44 3426.89 1670.31 3432.03 1660.11C3437.17 1649.91 3439.82 1638.87 3439.82 1627.7C3439.82 1616.53 3437.17 1605.49 3432.03 1595.29C3426.89 1585.09 3419.39 1575.96 3410 1568.49V1441.85C3439.92 1401.87 3459.51 1356.54 3467.35 1309.1H3440.03V1256H3560.13V1309.1H3532.81C3540.66 1356.54 3560.24 1401.87 3590.16 1441.85V1568.49Z" fill="#D1D1D1"/>
<path d="M4520.16 1568.49C4510.77 1575.96 4503.27 1585.09 4498.13 1595.29C4492.99 1605.49 4490.34 1616.53 4490.34 1627.7C4490.34 1638.87 4492.99 1649.91 4498.13 1660.11C4503.27 1670.31 4510.77 1679.44 4520.16 1686.91V1733.9C4520.16 1747.98 4513.83 1761.49 4502.57 1771.45C4491.31 1781.41 4476.03 1787 4460.11 1787H4400.05C4384.13 1787 4368.85 1781.41 4357.59 1771.45C4346.33 1761.49 4340 1747.98 4340 1733.9V1686.91C4349.39 1679.44 4356.89 1670.31 4362.03 1660.11C4367.17 1649.91 4369.82 1638.87 4369.82 1627.7C4369.82 1616.53 4367.17 1605.49 4362.03 1595.29C4356.89 1585.09 4349.39 1575.96 4340 1568.49V1441.85C4369.92 1401.87 4389.51 1356.54 4397.35 1309.1H4370.03V1256H4490.13V1309.1H4462.81C4470.66 1356.54 4490.24 1401.87 4520.16 1441.85V1568.49Z" fill="#D1D1D1"/>
<path d="M2350.16 1568.49C2340.77 1575.96 2333.27 1585.09 2328.13 1595.29C2322.99 1605.49 2320.34 1616.53 2320.34 1627.7C2320.34 1638.87 2322.99 1649.91 2328.13 1660.11C2333.27 1670.31 2340.77 1679.44 2350.16 1686.91V1733.9C2350.16 1747.98 2343.83 1761.49 2332.57 1771.45C2321.31 1781.41 2306.03 1787 2290.11 1787H2230.05C2214.13 1787 2198.85 1781.41 2187.59 1771.45C2176.33 1761.49 2170 1747.98 2170 1733.9V1686.91C2179.39 1679.44 2186.89 1670.31 2192.03 1660.11C2197.17 1649.91 2199.82 1638.87 2199.82 1627.7C2199.82 1616.53 2197.17 1605.49 2192.03 1595.29C2186.89 1585.09 2179.39 1575.96 2170 1568.49V1441.85C2199.92 1401.87 2219.51 1356.54 2227.35 1309.1H2200.03V1256H2320.13V1309.1H2292.81C2300.66 1356.54 2320.24 1401.87 2350.16 1441.85V1568.49Z" fill="#D1D1D1"/>
<path d="M180 2196.49C170.622 2203.96 163.122 2213.09 157.989 2223.29C152.856 2233.49 150.203 2244.53 150.203 2255.7C150.203 2266.87 152.856 2277.91 157.989 2288.11C163.122 2298.31 170.622 2307.44 180 2314.91V2361.9C180 2375.98 173.679 2389.49 162.426 2399.45C151.174 2409.41 135.913 2415 120 2415H60C44.087 2415 28.8258 2409.41 17.5736 2399.45C6.32142 2389.49 0 2375.98 0 2361.9V2314.91C9.37847 2307.44 16.8777 2298.31 22.011 2288.11C27.1444 2277.91 29.7971 2266.87 29.7971 2255.7C29.7971 2244.53 27.1444 2233.49 22.011 2223.29C16.8777 2213.09 9.37847 2203.96 0 2196.49V2069.85C29.8968 2029.87 49.4614 1984.54 57.3 1937.1H30V1884H150V1937.1H122.7C130.539 1984.54 150.103 2029.87 180 2069.85V2196.49Z" fill="#D1D1D1"/>
<path d="M2652 2196.49C2642.62 2203.96 2635.12 2213.09 2629.99 2223.29C2624.86 2233.49 2622.2 2244.53 2622.2 2255.7C2622.2 2266.87 2624.86 2277.91 2629.99 2288.11C2635.12 2298.31 2642.62 2307.44 2652 2314.91V2361.9C2652 2375.98 2645.68 2389.49 2634.43 2399.45C2623.17 2409.41 2607.91 2415 2592 2415H2532C2516.09 2415 2500.83 2409.41 2489.57 2399.45C2478.32 2389.49 2472 2375.98 2472 2361.9V2314.91C2481.38 2307.44 2488.88 2298.31 2494.01 2288.11C2499.14 2277.91 2501.8 2266.87 2501.8 2255.7C2501.8 2244.53 2499.14 2233.49 2494.01 2223.29C2488.88 2213.09 2481.38 2203.96 2472 2196.49V2069.85C2501.9 2029.87 2521.46 1984.54 2529.3 1937.1H2502V1884H2622V1937.1H2594.7C2602.54 1984.54 2622.1 2029.87 2652 2069.85V2196.49Z" fill="#D1D1D1"/>
<path d="M1416.16 2196.49C1406.77 2203.96 1399.27 2213.09 1394.13 2223.29C1388.99 2233.49 1386.34 2244.53 1386.34 2255.7C1386.34 2266.87 1388.99 2277.91 1394.13 2288.11C1399.27 2298.31 1406.77 2307.44 1416.16 2314.91V2361.9C1416.16 2375.98 1409.83 2389.49 1398.57 2399.45C1387.31 2409.41 1372.03 2415 1356.11 2415H1296.05C1280.13 2415 1264.85 2409.41 1253.59 2399.45C1242.33 2389.49 1236 2375.98 1236 2361.9V2314.91C1245.39 2307.44 1252.89 2298.31 1258.03 2288.11C1263.17 2277.91 1265.82 2266.87 1265.82 2255.7C1265.82 2244.53 1263.17 2233.49 1258.03 2223.29C1252.89 2213.09 1245.39 2203.96 1236 2196.49V2069.85C1265.92 2029.87 1285.51 1984.54 1293.35 1937.1H1266.03V1884H1386.13V1937.1H1358.81C1366.66 1984.54 1386.24 2029.87 1416.16 2069.85V2196.49Z" fill="#D1D1D1"/>
<path d="M798.162 2196.49C788.775 2203.96 781.269 2213.09 776.131 2223.29C770.993 2233.49 768.338 2244.53 768.338 2255.7C768.338 2266.87 770.993 2277.91 776.131 2288.11C781.269 2298.31 788.775 2307.44 798.162 2314.91V2361.9C798.162 2375.98 791.834 2389.49 780.572 2399.45C769.31 2409.41 754.035 2415 738.108 2415H678.054C662.127 2415 646.852 2409.41 635.589 2399.45C624.327 2389.49 618 2375.98 618 2361.9V2314.91C627.387 2307.44 634.893 2298.31 640.031 2288.11C645.169 2277.91 647.824 2266.87 647.824 2255.7C647.824 2244.53 645.169 2233.49 640.031 2223.29C634.893 2213.09 627.387 2203.96 618 2196.49V2069.85C647.924 2029.87 667.506 1984.54 675.351 1937.1H648.027V1884H768.135V1937.1H740.81C748.656 1984.54 768.238 2029.87 798.162 2069.85V2196.49Z" fill="#D1D1D1"/>
<path d="M2034.16 2196.49C2024.77 2203.96 2017.27 2213.09 2012.13 2223.29C2006.99 2233.49 2004.34 2244.53 2004.34 2255.7C2004.34 2266.87 2006.99 2277.91 2012.13 2288.11C2017.27 2298.31 2024.77 2307.44 2034.16 2314.91V2361.9C2034.16 2375.98 2027.83 2389.49 2016.57 2399.45C2005.31 2409.41 1990.03 2415 1974.11 2415H1914.05C1898.13 2415 1882.85 2409.41 1871.59 2399.45C1860.33 2389.49 1854 2375.98 1854 2361.9V2314.91C1863.39 2307.44 1870.89 2298.31 1876.03 2288.11C1881.17 2277.91 1883.82 2266.87 1883.82 2255.7C1883.82 2244.53 1881.17 2233.49 1876.03 2223.29C1870.89 2213.09 1863.39 2203.96 1854 2196.49V2069.85C1883.92 2029.87 1903.51 1984.54 1911.35 1937.1H1884.03V1884H2004.13V1937.1H1976.81C1984.66 1984.54 2004.24 2029.87 2034.16 2069.85V2196.49Z" fill="#D1D1D1"/>
<path d="M489 2196.49C479.622 2203.96 472.122 2213.09 466.989 2223.29C461.856 2233.49 459.203 2244.53 459.203 2255.7C459.203 2266.87 461.856 2277.91 466.989 2288.11C472.122 2298.31 479.622 2307.44 489 2314.91V2361.9C489 2375.98 482.679 2389.49 471.426 2399.45C460.174 2409.41 444.913 2415 429 2415H369C353.087 2415 337.826 2409.41 326.574 2399.45C315.321 2389.49 309 2375.98 309 2361.9V2314.91C318.378 2307.44 325.878 2298.31 331.011 2288.11C336.144 2277.91 338.797 2266.87 338.797 2255.7C338.797 2244.53 336.144 2233.49 331.011 2223.29C325.878 2213.09 318.378 2203.96 309 2196.49V2069.85C338.897 2029.87 358.461 1984.54 366.3 1937.1H339V1884H459V1937.1H431.7C439.539 1984.54 459.103 2029.87 489 2069.85V2196.49Z" fill="#D1D1D1"/>
<path d="M1725.16 2196.49C1715.77 2203.96 1708.27 2213.09 1703.13 2223.29C1697.99 2233.49 1695.34 2244.53 1695.34 2255.7C1695.34 2266.87 1697.99 2277.91 1703.13 2288.11C1708.27 2298.31 1715.77 2307.44 1725.16 2314.91V2361.9C1725.16 2375.98 1718.83 2389.49 1707.57 2399.45C1696.31 2409.41 1681.03 2415 1665.11 2415H1605.05C1589.13 2415 1573.85 2409.41 1562.59 2399.45C1551.33 2389.49 1545 2375.98 1545 2361.9V2314.91C1554.39 2307.44 1561.89 2298.31 1567.03 2288.11C1572.17 2277.91 1574.82 2266.87 1574.82 2255.7C1574.82 2244.53 1572.17 2233.49 1567.03 2223.29C1561.89 2213.09 1554.39 2203.96 1545 2196.49V2069.85C1574.92 2029.87 1594.51 1984.54 1602.35 1937.1H1575.03V1884H1695.13V1937.1H1667.81C1675.66 1984.54 1695.24 2029.87 1725.16 2069.85V2196.49Z" fill="#D1D1D1"/>
<path d="M1107.16 2196.49C1097.77 2203.96 1090.27 2213.09 1085.13 2223.29C1079.99 2233.49 1077.34 2244.53 1077.34 2255.7C1077.34 2266.87 1079.99 2277.91 1085.13 2288.11C1090.27 2298.31 1097.77 2307.44 1107.16 2314.91V2361.9C1107.16 2375.98 1100.83 2389.49 1089.57 2399.45C1078.31 2409.41 1063.03 2415 1047.11 2415H987.054C971.127 2415 955.852 2409.41 944.589 2399.45C933.327 2389.49 927 2375.98 927 2361.9V2314.91C936.387 2307.44 943.893 2298.31 949.031 2288.11C954.169 2277.91 956.824 2266.87 956.824 2255.7C956.824 2244.53 954.169 2233.49 949.031 2223.29C943.893 2213.09 936.387 2203.96 927 2196.49V2069.85C956.924 2029.87 976.506 1984.54 984.351 1937.1H957.027V1884H1077.13V1937.1H1049.81C1057.66 1984.54 1077.24 2029.87 1107.16 2069.85V2196.49Z" fill="#D1D1D1"/>
<path d="M2343.16 2196.49C2333.77 2203.96 2326.27 2213.09 2321.13 2223.29C2315.99 2233.49 2313.34 2244.53 2313.34 2255.7C2313.34 2266.87 2315.99 2277.91 2321.13 2288.11C2326.27 2298.31 2333.77 2307.44 2343.16 2314.91V2361.9C2343.16 2375.98 2336.83 2389.49 2325.57 2399.45C2314.31 2409.41 2299.03 2415 2283.11 2415H2223.05C2207.13 2415 2191.85 2409.41 2180.59 2399.45C2169.33 2389.49 2163 2375.98 2163 2361.9V2314.91C2172.39 2307.44 2179.89 2298.31 2185.03 2288.11C2190.17 2277.91 2192.82 2266.87 2192.82 2255.7C2192.82 2244.53 2190.17 2233.49 2185.03 2223.29C2179.89 2213.09 2172.39 2203.96 2163 2196.49V2069.85C2192.92 2029.87 2212.51 1984.54 2220.35 1937.1H2193.03V1884H2313.13V1937.1H2285.81C2293.66 1984.54 2313.24 2029.87 2343.16 2069.85V2196.49Z" fill="#D1D1D1"/>
</svg>
