<svg width="25" height="25" viewBox="0 0 25 25" fill="none" xmlns="http://www.w3.org/2000/svg">
<rect x="0.5" y="0.5" width="24" height="24" rx="5.5" stroke="#C1C1C1"/>
<path d="M21.0468 6.64657C21.4608 7.06069 21.6933 7.62229 21.6933 8.20786C21.6933 8.79343 21.4608 9.35503 21.0468 9.76915L12.2134 18.6025C11.7993 19.0165 11.2377 19.2491 10.6521 19.2491C10.0666 19.2491 9.50497 19.0165 9.09084 18.6025L4.67418 14.1858C4.46326 13.9821 4.29502 13.7384 4.17929 13.469C4.06355 13.1996 4.00263 12.9098 4.00008 12.6166C3.99754 12.3234 4.05341 12.0326 4.16445 11.7612C4.27548 11.4898 4.43946 11.2432 4.64681 11.0359C4.85415 10.8285 5.10072 10.6645 5.37211 10.5535C5.64351 10.4425 5.9343 10.3866 6.22752 10.3891C6.52074 10.3917 6.81052 10.4526 7.07995 10.5683C7.34937 10.6841 7.59305 10.8523 7.79676 11.0632L10.6521 13.9186L17.9242 6.64657C18.3383 6.23257 18.8999 6 19.4855 6C20.071 6 20.6326 6.23257 21.0468 6.64657Z" fill="#558613"/>
</svg>
