<svg width="27" height="18" viewBox="0 0 27 18" fill="none" xmlns="http://www.w3.org/2000/svg">
<path d="M24.3731 11.0389C24.5247 10.4943 24.6106 9.92531 24.6106 9.33689C24.6106 5.65076 21.5085 2.66977 17.684 2.66977C16.6988 2.66977 15.7641 2.86915 14.9204 3.22415C14.0716 1.32759 12.1114 0 9.83282 0C6.77117 0 4.29052 2.38772 4.29052 5.33467C4.29052 5.53405 4.33094 5.71885 4.35115 5.91336C2.13322 6.90055 0.592285 9.04998 0.592285 11.5593C0.592285 14.9974 3.48722 17.7839 7.05914 17.7839H22.7665C24.8076 17.7839 26.4597 16.1937 26.4597 14.229C26.4597 12.8188 25.6059 11.6176 24.3731 11.0389V11.0389Z" fill="#7C7C7C"/>
</svg>
