<svg width="15" height="11" viewBox="0 0 15 11" fill="none" xmlns="http://www.w3.org/2000/svg">
<path d="M1.15385 0.569614C0.835337 0.569614 0.563401 0.680867 0.338041 0.903372C0.11268 1.12588 0 1.39437 0 1.70884C0 2.02332 0.11268 2.29181 0.338041 2.51431C0.563401 2.73682 0.835337 2.84807 1.15385 2.84807L2.62609 11H12.3739L13.8462 2.84807C14.1647 2.84807 14.4366 2.73682 14.662 2.51431C14.8873 2.29181 15 2.02332 15 1.70884C15 1.39437 14.8873 1.12588 14.662 0.903372C14.4366 0.680867 14.1647 0.569614 13.8462 0.569614C13.5276 0.569614 13.2557 0.680867 13.0303 0.903372C12.805 1.12588 12.6923 1.39437 12.6923 1.70884C12.6923 2.04112 12.8155 2.31999 13.0619 2.54546C12.1424 3.63129 11.5204 4.33292 11.1959 4.65036C10.8714 4.96781 10.601 5.12653 10.3846 5.12653C10.1803 5.12653 9.93089 4.92924 9.63642 4.53466C9.34195 4.14009 8.83113 3.33165 8.10397 2.10935C8.27224 2.00848 8.40595 1.87201 8.50511 1.69994C8.60427 1.52787 8.65385 1.34097 8.65385 1.13923C8.65385 0.824754 8.54117 0.556264 8.31581 0.333758C8.09045 0.111253 7.81851 0 7.5 0C7.18149 0 6.90956 0.111253 6.6842 0.333758C6.45883 0.556264 6.34615 0.824754 6.34615 1.13923C6.34615 1.34097 6.39573 1.52787 6.49489 1.69994C6.59405 1.87201 6.72777 2.00848 6.89603 2.10935C6.16887 3.33165 5.65805 4.14009 5.36358 4.53466C5.06911 4.92924 4.81971 5.12653 4.61538 5.12653C4.39904 5.12653 4.12861 4.96781 3.80409 4.65036C3.47957 4.33292 2.85757 3.63129 1.9381 2.54546C2.1845 2.31999 2.30769 2.04112 2.30769 1.70884C2.30769 1.39437 2.19501 1.12588 1.96965 0.903372C1.74429 0.680867 1.47236 0.569614 1.15385 0.569614Z" fill="#D29252"/>
</svg>
