<svg width="20" height="24" viewBox="0 0 20 24" fill="none" xmlns="http://www.w3.org/2000/svg">
<path d="M19.1875 10.1916C19.1432 10.0671 19.0638 9.95985 18.9599 9.8841C18.856 9.80835 18.7326 9.76772 18.6062 9.76765H11.1228L15.4393 0.949418C15.4882 0.850124 15.5119 0.73927 15.5081 0.627547C15.5044 0.515825 15.4733 0.407006 15.4179 0.311586C15.3624 0.216167 15.2845 0.137368 15.1917 0.0827913C15.0988 0.0282143 14.9941 -0.00029881 14.8877 2.3613e-06C14.7392 6.71496e-05 14.5955 0.0562235 14.4831 0.158238L9.92984 4.28995L0.848825 12.5306C0.753123 12.6174 0.684974 12.7329 0.65352 12.8615C0.622067 12.9902 0.628814 13.1259 0.672856 13.2504C0.716899 13.3749 0.79613 13.4823 0.899919 13.5581C1.00371 13.634 1.12709 13.6747 1.25351 13.6747H8.73685L4.42037 22.4929C4.37149 22.5922 4.34778 22.7031 4.35154 22.8148C4.3553 22.9265 4.38639 23.0354 4.44183 23.1308C4.49726 23.2262 4.57516 23.305 4.66802 23.3596C4.76087 23.4141 4.86554 23.4427 4.97194 23.4424C5.12053 23.4423 5.26415 23.3861 5.37663 23.2841L9.92984 19.1524L19.0109 10.9118C19.1067 10.825 19.1751 10.7095 19.2066 10.5808C19.2382 10.452 19.2315 10.3162 19.1875 10.1916V10.1916Z" fill="#7C7C7C"/>
</svg>
