<svg width="26" height="21" viewBox="0 0 26 21" fill="none" xmlns="http://www.w3.org/2000/svg">
<g clip-path="url(#clip0_216_186)">
<path d="M0.076416 10.0679C0.263902 9.6262 0.601376 9.47065 1.07009 9.49554C1.49506 9.51421 1.92002 9.50176 2.37624 9.50176C2.40749 9.29022 2.43249 9.09112 2.46373 8.89202C3.07619 5.02827 5.18853 2.28445 8.7945 0.797439C11.763 -0.434481 14.7378 -0.216717 17.5751 1.32629C18.2563 1.6996 18.8625 2.20357 19.4874 2.67021C19.8187 2.91908 19.8874 3.31727 19.6937 3.64703C19.4999 3.98301 19.1187 4.11367 18.7187 3.9519C17.9063 3.61592 17.0751 3.37949 16.1877 3.32972C14.4316 3.23639 12.8629 3.72169 11.4818 4.79185C10.1506 5.82467 9.31946 7.1748 8.95074 8.81736C8.90074 9.03512 8.88199 9.25289 8.83825 9.50176C9.25696 9.50176 9.65068 9.49554 10.0382 9.50176C10.1756 9.50176 10.3256 9.50176 10.4569 9.54531C10.9318 9.68842 11.1256 10.2733 10.8381 10.6777C10.7693 10.771 10.6881 10.8581 10.6069 10.939C9.13822 12.4011 7.67583 13.857 6.2072 15.3192C5.71348 15.8107 5.33851 15.8107 4.8448 15.3192C3.40116 13.8757 1.95127 12.4322 0.507633 10.9826C0.338896 10.8146 0.220155 10.603 0.076416 10.4164C0.076416 10.3044 0.076416 10.1862 0.076416 10.0679Z" fill="#7C7C7C"/>
<path d="M16.9064 11.0375C16.4877 11.0375 16.0939 11.0437 15.7065 11.0375C15.569 11.0375 15.419 11.0375 15.2877 10.994C14.8128 10.8509 14.619 10.266 14.9065 9.86159C14.9753 9.76826 15.0565 9.68116 15.1378 9.60027C16.6064 8.13815 18.0688 6.68224 19.5374 5.22011C20.0311 4.72859 20.4061 4.72859 20.8998 5.22011C22.3872 6.69468 23.8683 8.17548 25.3557 9.65005C25.5745 9.86781 25.7244 10.1042 25.6557 10.4216C25.5745 10.8135 25.2932 11.0251 24.8308 11.0313C24.3558 11.0375 23.8808 11.0313 23.3746 11.0313C23.3434 11.2304 23.3121 11.4233 23.2871 11.6161C22.9684 14.0178 21.9122 16.0523 20.1499 17.7073C18.6062 19.1632 16.7626 20.0592 14.6503 20.3702C12.5442 20.6813 10.5381 20.3702 8.62575 19.4619C7.74457 19.0388 6.94463 18.485 6.21343 17.8317C5.9197 17.5704 5.86346 17.1785 6.05719 16.8611C6.25093 16.5438 6.61965 16.4194 6.99462 16.5687C7.63832 16.8238 8.28827 17.0478 8.97572 17.1411C10.4569 17.3464 11.8693 17.1225 13.1817 16.4194C15.094 15.399 16.2939 13.8187 16.7814 11.7095C16.8439 11.5104 16.8689 11.2864 16.9064 11.0375Z" fill="#7C7C7C"/>
</g>
<defs>
<clipPath id="clip0_216_186">
<rect width="25.5918" height="20.4947" fill="white" transform="translate(0.076416)"/>
</clipPath>
</defs>
</svg>
