<svg width="17" height="19" viewBox="0 0 17 19" fill="none" xmlns="http://www.w3.org/2000/svg">
<path d="M15.7423 6.55522L13.7729 18.0054C13.742 18.1697 13.6531 18.3183 13.5216 18.4254C13.3901 18.5326 13.2242 18.5916 13.0527 18.5922H3.99909C3.8276 18.5916 3.66173 18.5326 3.53021 18.4254C3.39868 18.3183 3.30979 18.1697 3.27892 18.0054L1.30947 6.55522C1.2925 6.45332 1.29838 6.34904 1.3267 6.24956C1.35501 6.15007 1.4051 6.05773 1.47351 5.97887C1.54193 5.90001 1.62705 5.83649 1.72305 5.79269C1.81904 5.74888 1.92363 5.72582 2.02964 5.72509H15.0075C15.1147 5.72374 15.2209 5.74527 15.3187 5.78817C15.4165 5.83106 15.5035 5.89429 15.5735 5.9734C15.6436 6.05251 15.695 6.14559 15.7241 6.2461C15.7533 6.34661 15.7595 6.45212 15.7423 6.55522ZM16.6095 3.57818C16.6095 3.76798 16.532 3.95 16.3942 4.08421C16.2564 4.21842 16.0695 4.29382 15.8746 4.29382H1.17719C0.982292 4.29382 0.795375 4.21842 0.65756 4.08421C0.519746 3.95 0.442322 3.76798 0.442322 3.57818C0.442322 3.38838 0.519746 3.20636 0.65756 3.07215C0.795375 2.93794 0.982292 2.86254 1.17719 2.86254H4.85154V0.715636C4.85154 0.525837 4.92897 0.343813 5.06678 0.209605C5.2046 0.0753971 5.39151 0 5.58641 0H11.4654C11.6603 0 11.8472 0.0753971 11.985 0.209605C12.1228 0.343813 12.2002 0.525837 12.2002 0.715636V2.86254H15.8746C16.0695 2.86254 16.2564 2.93794 16.3942 3.07215C16.532 3.20636 16.6095 3.38838 16.6095 3.57818ZM10.7305 2.86254V1.43127H6.32128V2.86254H10.7305Z" fill="#7C7C7C"/>
</svg>
