<svg width="19" height="22" viewBox="0 0 19 22" fill="none" xmlns="http://www.w3.org/2000/svg">
<path d="M10.2595 0.264486C9.83718 -0.088162 9.20363 -0.088162 8.78126 0.264486C3.35719 4.8596 0.634033 8.85628 0.634033 12.2545C0.634033 17.5763 4.8577 21.0173 9.52596 21.0173C14.1942 21.0173 18.4179 17.5763 18.4179 12.2545C18.4179 8.85628 15.6947 4.8596 10.2595 0.264486ZM4.89104 12.4682C5.3023 12.4682 5.63574 12.7461 5.71355 13.1308C6.16926 15.5032 8.24775 16.3153 9.75938 16.1978C10.2373 16.1764 10.6375 16.5397 10.6375 16.9992C10.6375 17.4267 10.2818 17.7793 9.83718 17.8007C7.4697 17.9396 4.70209 16.6359 4.06854 13.398C4.04923 13.2834 4.05602 13.1661 4.08846 13.0543C4.12091 12.9425 4.17822 12.8389 4.25643 12.7504C4.33465 12.662 4.43191 12.591 4.54148 12.5423C4.65105 12.4936 4.77032 12.4683 4.89104 12.4682V12.4682Z" fill="#7C7C7C"/>
</svg>
